# xmcd
#
# Track frame offsets:
#	150
#	27690
#	43330
#	57305
#	71880
#	86020
#	98265
#	129055
#	148845
#	172895
#	191015
#	204075
#	218920
#
# Disc length: 3119 seconds
#
# Revision: 0
# Processed by: cddbd v1.4PL0 Copyright (c) Steve Scherf et al.
# Submitted via: dBpowerAMP V4.0
#
DISCID=ba0c2d0d
DTITLE=Jimmy Vivino - Do What Now
DYEAR=1900
DGENRE=Blues
TTITLE0=Birds Nest On The Ground
TTITLE1=How Come My Bulldog Don't Bark
TTITLE2=Strange Things Happening
TTITLE3=God Don't Never Change
TTITLE4=Operator
TTITLE5=Sugaree
TTITLE6=Stranger Blues
TTITLE7=Life Is Suicide
TTITLE8=Got To Move
TTITLE9=I Get Evil
TTITLE10=Little Geneva
TTITLE11=What Have I Done Wrong
TTITLE12=Too Tired
EXTD=Jimmy Vivino-Do What Now
EXTT0=
EXTT1=
EXTT2=
EXTT3=
EXTT4=
EXTT5=
EXTT6=
EXTT7=
EXTT8=
EXTT9=
EXTT10=
EXTT11=
EXTT12=
PLAYORDER=
